<mxfile host="app.diagrams.net" modified="2022-09-16T10:56:58.278Z" agent="5.0 (Windows NT 10.0; Win64; x64) AppleWebKit/537.36 (KHTML, like Gecko) Chrome/105.0.0.0 Safari/537.36" etag="_jCjrfgX2PBpg0rmj_XB" version="20.3.1" type="github">
  <diagram id="C5RBs43oDa-KdzZeNtuy" name="Page-1">
    <mxGraphModel dx="2249" dy="800" grid="1" gridSize="10" guides="1" tooltips="1" connect="1" arrows="1" fold="1" page="1" pageScale="1" pageWidth="827" pageHeight="1169" math="0" shadow="0">
      <root>
        <mxCell id="WIyWlLk6GJQsqaUBKTNV-0" />
        <mxCell id="WIyWlLk6GJQsqaUBKTNV-1" parent="WIyWlLk6GJQsqaUBKTNV-0" />
        <mxCell id="HAlKXmDzrB93N0-EfDcC-2" value="frame" style="shape=umlFrame;whiteSpace=wrap;html=1;" parent="WIyWlLk6GJQsqaUBKTNV-1" vertex="1">
          <mxGeometry y="40" width="720" height="640" as="geometry" />
        </mxCell>
        <mxCell id="HAlKXmDzrB93N0-EfDcC-1" value="Сформувати план терапії та &lt;br&gt;рекомендації" style="ellipse;whiteSpace=wrap;html=1;" parent="WIyWlLk6GJQsqaUBKTNV-1" vertex="1">
          <mxGeometry x="60" y="50" width="140" height="70" as="geometry" />
        </mxCell>
        <mxCell id="HAlKXmDzrB93N0-EfDcC-3" value="Авторизувати користувача" style="ellipse;whiteSpace=wrap;html=1;" parent="WIyWlLk6GJQsqaUBKTNV-1" vertex="1">
          <mxGeometry x="300" y="340" width="140" height="70" as="geometry" />
        </mxCell>
        <mxCell id="HAlKXmDzrB93N0-EfDcC-4" value="Психолог" style="shape=umlActor;verticalLabelPosition=bottom;verticalAlign=top;html=1;" parent="WIyWlLk6GJQsqaUBKTNV-1" vertex="1">
          <mxGeometry x="-110" y="110" width="30" height="60" as="geometry" />
        </mxCell>
        <mxCell id="xgJl-UsMTcOw9ZTmGu5u-63" style="edgeStyle=orthogonalEdgeStyle;rounded=0;orthogonalLoop=1;jettySize=auto;html=1;endArrow=block;endFill=0;" parent="WIyWlLk6GJQsqaUBKTNV-1" edge="1">
          <mxGeometry relative="1" as="geometry">
            <mxPoint x="-200" y="400" as="targetPoint" />
            <mxPoint x="870" y="640" as="sourcePoint" />
            <Array as="points">
              <mxPoint x="870" y="640" />
              <mxPoint x="870" y="755" />
              <mxPoint x="-200" y="755" />
            </Array>
          </mxGeometry>
        </mxCell>
        <mxCell id="HAlKXmDzrB93N0-EfDcC-6" value="Офісний робітник" style="shape=umlActor;verticalLabelPosition=bottom;verticalAlign=top;html=1;" parent="WIyWlLk6GJQsqaUBKTNV-1" vertex="1">
          <mxGeometry x="850" y="550" width="30" height="60" as="geometry" />
        </mxCell>
        <mxCell id="HAlKXmDzrB93N0-EfDcC-8" value="Провести консультацію" style="ellipse;whiteSpace=wrap;html=1;" parent="WIyWlLk6GJQsqaUBKTNV-1" vertex="1">
          <mxGeometry x="370" y="110" width="140" height="70" as="geometry" />
        </mxCell>
        <mxCell id="xgJl-UsMTcOw9ZTmGu5u-0" value="Insomnia-споживач" style="shape=umlActor;verticalLabelPosition=bottom;verticalAlign=top;html=1;" parent="WIyWlLk6GJQsqaUBKTNV-1" vertex="1">
          <mxGeometry x="-110" y="470" width="30" height="60" as="geometry" />
        </mxCell>
        <mxCell id="xgJl-UsMTcOw9ZTmGu5u-4" value="Користувач" style="shape=umlActor;verticalLabelPosition=bottom;verticalAlign=top;html=1;" parent="WIyWlLk6GJQsqaUBKTNV-1" vertex="1">
          <mxGeometry x="-220" y="300" width="30" height="60" as="geometry" />
        </mxCell>
        <mxCell id="xgJl-UsMTcOw9ZTmGu5u-10" value="" style="endArrow=block;html=1;rounded=0;endFill=0;" parent="WIyWlLk6GJQsqaUBKTNV-1" edge="1">
          <mxGeometry width="50" height="50" relative="1" as="geometry">
            <mxPoint x="-150" y="415" as="sourcePoint" />
            <mxPoint x="-180" y="375" as="targetPoint" />
            <Array as="points">
              <mxPoint x="-110" y="470" />
              <mxPoint x="-150" y="415" />
            </Array>
          </mxGeometry>
        </mxCell>
        <mxCell id="xgJl-UsMTcOw9ZTmGu5u-11" value="" style="endArrow=block;html=1;rounded=0;endFill=0;" parent="WIyWlLk6GJQsqaUBKTNV-1" edge="1">
          <mxGeometry width="50" height="50" relative="1" as="geometry">
            <mxPoint x="-130" y="200" as="sourcePoint" />
            <mxPoint x="-200" y="270" as="targetPoint" />
            <Array as="points" />
          </mxGeometry>
        </mxCell>
        <mxCell id="xgJl-UsMTcOw9ZTmGu5u-15" value="Друкувати результати досліджень" style="ellipse;whiteSpace=wrap;html=1;" parent="WIyWlLk6GJQsqaUBKTNV-1" vertex="1">
          <mxGeometry x="250" y="170" width="140" height="70" as="geometry" />
        </mxCell>
        <mxCell id="xgJl-UsMTcOw9ZTmGu5u-17" value="Отримати результати аналізу" style="ellipse;whiteSpace=wrap;html=1;" parent="WIyWlLk6GJQsqaUBKTNV-1" vertex="1">
          <mxGeometry x="50" y="585" width="140" height="70" as="geometry" />
        </mxCell>
        <mxCell id="xgJl-UsMTcOw9ZTmGu5u-18" value="Публікувати статті" style="ellipse;whiteSpace=wrap;html=1;" parent="WIyWlLk6GJQsqaUBKTNV-1" vertex="1">
          <mxGeometry x="50" y="230" width="140" height="70" as="geometry" />
        </mxCell>
        <mxCell id="xgJl-UsMTcOw9ZTmGu5u-20" value="Подати заявку на пошук спеціаліста" style="ellipse;whiteSpace=wrap;html=1;" parent="WIyWlLk6GJQsqaUBKTNV-1" vertex="1">
          <mxGeometry x="130" y="450" width="140" height="70" as="geometry" />
        </mxCell>
        <mxCell id="xgJl-UsMTcOw9ZTmGu5u-82" style="edgeStyle=orthogonalEdgeStyle;rounded=0;orthogonalLoop=1;jettySize=auto;html=1;endArrow=classic;endFill=1;" parent="WIyWlLk6GJQsqaUBKTNV-1" source="xgJl-UsMTcOw9ZTmGu5u-22" edge="1">
          <mxGeometry relative="1" as="geometry">
            <mxPoint x="-95" y="560" as="targetPoint" />
            <Array as="points">
              <mxPoint x="590" y="720" />
              <mxPoint x="-95" y="720" />
            </Array>
          </mxGeometry>
        </mxCell>
        <mxCell id="xgJl-UsMTcOw9ZTmGu5u-22" value="Надати спеціаліста" style="ellipse;whiteSpace=wrap;html=1;" parent="WIyWlLk6GJQsqaUBKTNV-1" vertex="1">
          <mxGeometry x="520" y="550" width="140" height="70" as="geometry" />
        </mxCell>
        <mxCell id="xgJl-UsMTcOw9ZTmGu5u-23" value="Отримати рекомендацію" style="ellipse;whiteSpace=wrap;html=1;" parent="WIyWlLk6GJQsqaUBKTNV-1" vertex="1">
          <mxGeometry x="50" y="370" width="140" height="70" as="geometry" />
        </mxCell>
        <mxCell id="xgJl-UsMTcOw9ZTmGu5u-24" value="Зробити&lt;br&gt;E-сплату&lt;br&gt;рахунку" style="ellipse;whiteSpace=wrap;html=1;" parent="WIyWlLk6GJQsqaUBKTNV-1" vertex="1">
          <mxGeometry x="520" y="380" width="140" height="70" as="geometry" />
        </mxCell>
        <mxCell id="xgJl-UsMTcOw9ZTmGu5u-30" value="" style="endArrow=none;html=1;rounded=0;" parent="WIyWlLk6GJQsqaUBKTNV-1" target="xgJl-UsMTcOw9ZTmGu5u-18" edge="1">
          <mxGeometry width="50" height="50" relative="1" as="geometry">
            <mxPoint x="-60" y="180" as="sourcePoint" />
            <mxPoint x="-10" y="115" as="targetPoint" />
          </mxGeometry>
        </mxCell>
        <mxCell id="xgJl-UsMTcOw9ZTmGu5u-34" value="" style="endArrow=none;html=1;rounded=0;entryX=0.014;entryY=0.629;entryDx=0;entryDy=0;entryPerimeter=0;" parent="WIyWlLk6GJQsqaUBKTNV-1" target="HAlKXmDzrB93N0-EfDcC-1" edge="1">
          <mxGeometry width="50" height="50" relative="1" as="geometry">
            <mxPoint x="-60" y="140" as="sourcePoint" />
            <mxPoint x="-10" y="90" as="targetPoint" />
          </mxGeometry>
        </mxCell>
        <mxCell id="xgJl-UsMTcOw9ZTmGu5u-41" value="" style="endArrow=none;html=1;rounded=0;entryX=0;entryY=0.5;entryDx=0;entryDy=0;" parent="WIyWlLk6GJQsqaUBKTNV-1" target="xgJl-UsMTcOw9ZTmGu5u-37" edge="1">
          <mxGeometry width="50" height="50" relative="1" as="geometry">
            <mxPoint x="-50" y="520" as="sourcePoint" />
            <mxPoint x="50" y="560" as="targetPoint" />
            <Array as="points" />
          </mxGeometry>
        </mxCell>
        <mxCell id="xgJl-UsMTcOw9ZTmGu5u-42" value="" style="endArrow=none;html=1;rounded=0;entryX=0;entryY=0.5;entryDx=0;entryDy=0;" parent="WIyWlLk6GJQsqaUBKTNV-1" target="xgJl-UsMTcOw9ZTmGu5u-17" edge="1">
          <mxGeometry width="50" height="50" relative="1" as="geometry">
            <mxPoint x="-40" y="550" as="sourcePoint" />
            <mxPoint x="21.960000000000036" y="430" as="targetPoint" />
            <Array as="points" />
          </mxGeometry>
        </mxCell>
        <mxCell id="xgJl-UsMTcOw9ZTmGu5u-43" value="" style="endArrow=none;html=1;rounded=0;entryX=-0.021;entryY=0.643;entryDx=0;entryDy=0;entryPerimeter=0;" parent="WIyWlLk6GJQsqaUBKTNV-1" target="xgJl-UsMTcOw9ZTmGu5u-23" edge="1">
          <mxGeometry width="50" height="50" relative="1" as="geometry">
            <mxPoint x="-50" y="470" as="sourcePoint" />
            <mxPoint x="60.5025253169415" y="540.0012626584708" as="targetPoint" />
          </mxGeometry>
        </mxCell>
        <mxCell id="xgJl-UsMTcOw9ZTmGu5u-44" value="" style="endArrow=block;html=1;rounded=0;endFill=0;" parent="WIyWlLk6GJQsqaUBKTNV-1" edge="1">
          <mxGeometry width="50" height="50" relative="1" as="geometry">
            <mxPoint x="-95.5" y="440" as="sourcePoint" />
            <mxPoint x="-95.5" y="230" as="targetPoint" />
            <Array as="points">
              <mxPoint x="-95.5" y="440" />
            </Array>
          </mxGeometry>
        </mxCell>
        <mxCell id="xgJl-UsMTcOw9ZTmGu5u-50" value="" style="endArrow=classic;dashed=1;html=1;dashPattern=1 3;strokeWidth=2;rounded=0;endFill=1;entryX=0;entryY=0.5;entryDx=0;entryDy=0;" parent="WIyWlLk6GJQsqaUBKTNV-1" target="HAlKXmDzrB93N0-EfDcC-3" edge="1">
          <mxGeometry width="50" height="50" relative="1" as="geometry">
            <mxPoint x="190" y="394.89" as="sourcePoint" />
            <mxPoint x="314.3138326788885" y="290.00020367718764" as="targetPoint" />
          </mxGeometry>
        </mxCell>
        <mxCell id="xgJl-UsMTcOw9ZTmGu5u-52" value="" style="endArrow=classic;dashed=1;html=1;dashPattern=1 3;strokeWidth=2;rounded=0;endFill=1;entryX=0.5;entryY=0;entryDx=0;entryDy=0;exitX=0.5;exitY=1;exitDx=0;exitDy=0;" parent="WIyWlLk6GJQsqaUBKTNV-1" source="xgJl-UsMTcOw9ZTmGu5u-15" target="HAlKXmDzrB93N0-EfDcC-3" edge="1">
          <mxGeometry width="50" height="50" relative="1" as="geometry">
            <mxPoint x="290" y="259.9999999999999" as="sourcePoint" />
            <mxPoint x="390" y="220.11" as="targetPoint" />
          </mxGeometry>
        </mxCell>
        <mxCell id="xgJl-UsMTcOw9ZTmGu5u-53" value="" style="endArrow=classic;dashed=1;html=1;dashPattern=1 3;strokeWidth=2;rounded=0;endFill=1;entryX=0.743;entryY=0.043;entryDx=0;entryDy=0;entryPerimeter=0;exitX=0.5;exitY=1;exitDx=0;exitDy=0;" parent="WIyWlLk6GJQsqaUBKTNV-1" source="HAlKXmDzrB93N0-EfDcC-8" target="HAlKXmDzrB93N0-EfDcC-3" edge="1">
          <mxGeometry width="50" height="50" relative="1" as="geometry">
            <mxPoint x="360" y="150" as="sourcePoint" />
            <mxPoint x="430" y="210" as="targetPoint" />
            <Array as="points" />
          </mxGeometry>
        </mxCell>
        <mxCell id="xgJl-UsMTcOw9ZTmGu5u-54" value="" style="endArrow=classic;dashed=1;html=1;dashPattern=1 3;strokeWidth=2;rounded=0;endFill=1;exitX=1;exitY=1;exitDx=0;exitDy=0;" parent="WIyWlLk6GJQsqaUBKTNV-1" source="xgJl-UsMTcOw9ZTmGu5u-18" target="HAlKXmDzrB93N0-EfDcC-3" edge="1">
          <mxGeometry width="50" height="50" relative="1" as="geometry">
            <mxPoint x="160" y="289.9999999999999" as="sourcePoint" />
            <mxPoint x="260" y="250.11" as="targetPoint" />
          </mxGeometry>
        </mxCell>
        <mxCell id="xgJl-UsMTcOw9ZTmGu5u-57" value="" style="endArrow=none;html=1;rounded=0;" parent="WIyWlLk6GJQsqaUBKTNV-1" target="xgJl-UsMTcOw9ZTmGu5u-20" edge="1">
          <mxGeometry width="50" height="50" relative="1" as="geometry">
            <mxPoint x="-50" y="500" as="sourcePoint" />
            <mxPoint x="-10" y="440" as="targetPoint" />
            <Array as="points" />
          </mxGeometry>
        </mxCell>
        <mxCell id="xgJl-UsMTcOw9ZTmGu5u-60" value="Сервіс Fondy" style="shape=umlActor;verticalLabelPosition=bottom;verticalAlign=top;html=1;" parent="WIyWlLk6GJQsqaUBKTNV-1" vertex="1">
          <mxGeometry x="790" y="300" width="30" height="60" as="geometry" />
        </mxCell>
        <mxCell id="xgJl-UsMTcOw9ZTmGu5u-37" value="Сплатити рахунок" style="ellipse;whiteSpace=wrap;html=1;" parent="WIyWlLk6GJQsqaUBKTNV-1" vertex="1">
          <mxGeometry x="200" y="530" width="140" height="70" as="geometry" />
        </mxCell>
        <mxCell id="xgJl-UsMTcOw9ZTmGu5u-70" value="" style="endArrow=none;html=1;rounded=0;exitX=0.964;exitY=0.329;exitDx=0;exitDy=0;exitPerimeter=0;" parent="WIyWlLk6GJQsqaUBKTNV-1" source="xgJl-UsMTcOw9ZTmGu5u-24" edge="1">
          <mxGeometry width="50" height="50" relative="1" as="geometry">
            <mxPoint x="670" y="600" as="sourcePoint" />
            <mxPoint x="770" y="340" as="targetPoint" />
          </mxGeometry>
        </mxCell>
        <mxCell id="xgJl-UsMTcOw9ZTmGu5u-72" value="" style="endArrow=classic;html=1;rounded=0;" parent="WIyWlLk6GJQsqaUBKTNV-1" target="xgJl-UsMTcOw9ZTmGu5u-23" edge="1">
          <mxGeometry width="50" height="50" relative="1" as="geometry">
            <mxPoint x="-80" y="190" as="sourcePoint" />
            <mxPoint x="-30" y="140" as="targetPoint" />
            <Array as="points" />
          </mxGeometry>
        </mxCell>
        <mxCell id="xgJl-UsMTcOw9ZTmGu5u-80" value="" style="endArrow=classic;html=1;rounded=0;exitX=1;exitY=0.5;exitDx=0;exitDy=0;" parent="WIyWlLk6GJQsqaUBKTNV-1" source="xgJl-UsMTcOw9ZTmGu5u-20" edge="1">
          <mxGeometry width="50" height="50" relative="1" as="geometry">
            <mxPoint x="490" y="470" as="sourcePoint" />
            <mxPoint x="830" y="560" as="targetPoint" />
          </mxGeometry>
        </mxCell>
        <mxCell id="xgJl-UsMTcOw9ZTmGu5u-83" value="" style="endArrow=classic;dashed=1;html=1;dashPattern=1 3;strokeWidth=2;rounded=0;endFill=1;entryX=0;entryY=1;entryDx=0;entryDy=0;exitX=1;exitY=0;exitDx=0;exitDy=0;" parent="WIyWlLk6GJQsqaUBKTNV-1" source="xgJl-UsMTcOw9ZTmGu5u-20" target="HAlKXmDzrB93N0-EfDcC-3" edge="1">
          <mxGeometry width="50" height="50" relative="1" as="geometry">
            <mxPoint x="280" y="429.9999999999999" as="sourcePoint" />
            <mxPoint x="380" y="390.11" as="targetPoint" />
          </mxGeometry>
        </mxCell>
        <mxCell id="xgJl-UsMTcOw9ZTmGu5u-84" value="" style="endArrow=classic;dashed=1;html=1;dashPattern=1 3;strokeWidth=2;rounded=0;endFill=1;entryX=0.729;entryY=0.986;entryDx=0;entryDy=0;entryPerimeter=0;" parent="WIyWlLk6GJQsqaUBKTNV-1" target="HAlKXmDzrB93N0-EfDcC-3" edge="1">
          <mxGeometry width="50" height="50" relative="1" as="geometry">
            <mxPoint x="190" y="624.8899999999999" as="sourcePoint" />
            <mxPoint x="370" y="380" as="targetPoint" />
            <Array as="points">
              <mxPoint x="270" y="625" />
              <mxPoint x="350" y="620" />
              <mxPoint x="370" y="610" />
              <mxPoint x="380" y="570" />
            </Array>
          </mxGeometry>
        </mxCell>
        <mxCell id="xgJl-UsMTcOw9ZTmGu5u-85" value="" style="endArrow=classic;html=1;rounded=0;entryX=1;entryY=0.5;entryDx=0;entryDy=0;" parent="WIyWlLk6GJQsqaUBKTNV-1" target="xgJl-UsMTcOw9ZTmGu5u-22" edge="1">
          <mxGeometry width="50" height="50" relative="1" as="geometry">
            <mxPoint x="827" y="585" as="sourcePoint" />
            <mxPoint x="877" y="535" as="targetPoint" />
          </mxGeometry>
        </mxCell>
        <mxCell id="xgJl-UsMTcOw9ZTmGu5u-86" value="" style="endArrow=classic;dashed=1;html=1;dashPattern=1 3;strokeWidth=2;rounded=0;endFill=1;exitX=0.621;exitY=1;exitDx=0;exitDy=0;exitPerimeter=0;" parent="WIyWlLk6GJQsqaUBKTNV-1" source="HAlKXmDzrB93N0-EfDcC-1" target="HAlKXmDzrB93N0-EfDcC-3" edge="1">
          <mxGeometry width="50" height="50" relative="1" as="geometry">
            <mxPoint x="140" y="130" as="sourcePoint" />
            <mxPoint x="190" y="320" as="targetPoint" />
          </mxGeometry>
        </mxCell>
        <mxCell id="xgJl-UsMTcOw9ZTmGu5u-88" value="" style="endArrow=classic;dashed=1;html=1;dashPattern=1 3;strokeWidth=2;rounded=0;endFill=1;entryX=0.414;entryY=0.986;entryDx=0;entryDy=0;entryPerimeter=0;exitX=0.636;exitY=0.029;exitDx=0;exitDy=0;exitPerimeter=0;" parent="WIyWlLk6GJQsqaUBKTNV-1" source="xgJl-UsMTcOw9ZTmGu5u-37" target="HAlKXmDzrB93N0-EfDcC-3" edge="1">
          <mxGeometry width="50" height="50" relative="1" as="geometry">
            <mxPoint x="280" y="529.9999999999999" as="sourcePoint" />
            <mxPoint x="380" y="490.11" as="targetPoint" />
            <Array as="points" />
          </mxGeometry>
        </mxCell>
        <mxCell id="xgJl-UsMTcOw9ZTmGu5u-89" value="" style="endArrow=none;html=1;rounded=0;" parent="WIyWlLk6GJQsqaUBKTNV-1" target="xgJl-UsMTcOw9ZTmGu5u-15" edge="1">
          <mxGeometry width="50" height="50" relative="1" as="geometry">
            <mxPoint x="-60" y="160" as="sourcePoint" />
            <mxPoint y="110" as="targetPoint" />
          </mxGeometry>
        </mxCell>
        <mxCell id="xgJl-UsMTcOw9ZTmGu5u-90" value="" style="endArrow=none;html=1;rounded=0;entryX=0;entryY=0.5;entryDx=0;entryDy=0;" parent="WIyWlLk6GJQsqaUBKTNV-1" target="HAlKXmDzrB93N0-EfDcC-8" edge="1">
          <mxGeometry width="50" height="50" relative="1" as="geometry">
            <mxPoint x="-60" y="150" as="sourcePoint" />
            <mxPoint x="222.09002498982682" y="186.51125312372835" as="targetPoint" />
            <Array as="points" />
          </mxGeometry>
        </mxCell>
        <mxCell id="xgJl-UsMTcOw9ZTmGu5u-91" value="" style="endArrow=classic;dashed=1;html=1;dashPattern=1 3;strokeWidth=2;rounded=0;endFill=1;entryX=1;entryY=0.5;entryDx=0;entryDy=0;" parent="WIyWlLk6GJQsqaUBKTNV-1" source="xgJl-UsMTcOw9ZTmGu5u-24" target="xgJl-UsMTcOw9ZTmGu5u-37" edge="1">
          <mxGeometry width="50" height="50" relative="1" as="geometry">
            <mxPoint x="373.98" y="390" as="sourcePoint" />
            <mxPoint x="344" y="573.01" as="targetPoint" />
            <Array as="points" />
          </mxGeometry>
        </mxCell>
        <mxCell id="cgv-gH5BZsWEi20Xp3cS-0" value="&amp;lt;&amp;lt;include&amp;gt;&amp;gt;" style="text;html=1;strokeColor=none;fillColor=none;align=center;verticalAlign=middle;whiteSpace=wrap;rounded=0;rotation=-10;" parent="WIyWlLk6GJQsqaUBKTNV-1" vertex="1">
          <mxGeometry x="200" y="360" width="60" height="30" as="geometry" />
        </mxCell>
        <mxCell id="cgv-gH5BZsWEi20Xp3cS-1" value="&amp;lt;&amp;lt;include&amp;gt;&amp;gt;" style="text;html=1;strokeColor=none;fillColor=none;align=center;verticalAlign=middle;whiteSpace=wrap;rounded=0;rotation=-45;" parent="WIyWlLk6GJQsqaUBKTNV-1" vertex="1">
          <mxGeometry x="240" y="410" width="60" height="30" as="geometry" />
        </mxCell>
        <mxCell id="cgv-gH5BZsWEi20Xp3cS-2" value="&amp;lt;&amp;lt;include&amp;gt;&amp;gt;" style="text;html=1;strokeColor=none;fillColor=none;align=center;verticalAlign=middle;whiteSpace=wrap;rounded=0;rotation=25;" parent="WIyWlLk6GJQsqaUBKTNV-1" vertex="1">
          <mxGeometry x="210" y="290" width="60" height="30" as="geometry" />
        </mxCell>
        <mxCell id="cgv-gH5BZsWEi20Xp3cS-3" value="&amp;lt;&amp;lt;include&amp;gt;&amp;gt;" style="text;html=1;strokeColor=none;fillColor=none;align=center;verticalAlign=middle;whiteSpace=wrap;rounded=0;rotation=-75;" parent="WIyWlLk6GJQsqaUBKTNV-1" vertex="1">
          <mxGeometry x="380" y="250" width="60" height="30" as="geometry" />
        </mxCell>
        <mxCell id="cgv-gH5BZsWEi20Xp3cS-4" value="&amp;lt;&amp;lt;include&amp;gt;&amp;gt;" style="text;html=1;strokeColor=none;fillColor=none;align=center;verticalAlign=middle;whiteSpace=wrap;rounded=0;rotation=60;" parent="WIyWlLk6GJQsqaUBKTNV-1" vertex="1">
          <mxGeometry x="320" y="260" width="60" height="30" as="geometry" />
        </mxCell>
        <mxCell id="cgv-gH5BZsWEi20Xp3cS-5" value="&amp;lt;&amp;lt;include&amp;gt;&amp;gt;" style="text;html=1;strokeColor=none;fillColor=none;align=center;verticalAlign=middle;whiteSpace=wrap;rounded=0;rotation=45;" parent="WIyWlLk6GJQsqaUBKTNV-1" vertex="1">
          <mxGeometry x="270" y="260" width="60" height="30" as="geometry" />
        </mxCell>
        <mxCell id="cgv-gH5BZsWEi20Xp3cS-6" value="&amp;lt;&amp;lt;include&amp;gt;&amp;gt;" style="text;html=1;strokeColor=none;fillColor=none;align=center;verticalAlign=middle;whiteSpace=wrap;rounded=0;rotation=-60;" parent="WIyWlLk6GJQsqaUBKTNV-1" vertex="1">
          <mxGeometry x="280" y="440" width="60" height="30" as="geometry" />
        </mxCell>
        <mxCell id="cgv-gH5BZsWEi20Xp3cS-8" value="&amp;lt;&amp;lt;include&amp;gt;&amp;gt;" style="text;html=1;strokeColor=none;fillColor=none;align=center;verticalAlign=middle;whiteSpace=wrap;rounded=0;rotation=-75;" parent="WIyWlLk6GJQsqaUBKTNV-1" vertex="1">
          <mxGeometry x="350" y="440" width="60" height="30" as="geometry" />
        </mxCell>
        <mxCell id="cgv-gH5BZsWEi20Xp3cS-9" value="&amp;lt;&amp;lt;extend&amp;gt;&amp;gt;" style="text;html=1;strokeColor=none;fillColor=none;align=center;verticalAlign=middle;whiteSpace=wrap;rounded=0;rotation=-30;" parent="WIyWlLk6GJQsqaUBKTNV-1" vertex="1">
          <mxGeometry x="450" y="450" width="60" height="30" as="geometry" />
        </mxCell>
      </root>
    </mxGraphModel>
  </diagram>
</mxfile>
